<svg xmlns="http://www.w3.org/2000/svg" xmlns:xlink="http://www.w3.org/1999/xlink"><symbol id="icon-feature-ball"><path d="M.286 14.069a17.244 17.244 0 0 0 .008 6.301l4.121-3.21-4.129-3.091zM24.403 1.585C19.62-.623 13.959-.559 9.149 1.992l7.513 5.625 7.741-6.032zm9.498 11.59l-4.811 3.748 4.936 3.695a17.248 17.248 0 0 0-.125-7.443zM9.209 32.414c4.844 2.534 10.724 2.65 15.73.113l-8.096-6.062-7.634 5.949zM7.914 14.433L1.681 9.767c-.32.669-.595 1.356-.825 2.056l5.308 3.974 1.75-1.364zm10.679 10.669l8.336 6.242a17.184 17.184 0 0 0 1.74-1.372l-8.326-6.234-1.75 1.364zm-7.18-13.395L4.002 6.158a17.073 17.073 0 0 0-1.269 1.723l6.931 5.189 1.749-1.363zm10.68 10.668l8.092 6.059c.471-.544.904-1.112 1.297-1.701l-7.639-5.721-1.75 1.363zM14.913 8.98L7.196 3.203a17.436 17.436 0 0 0-1.709 1.394l7.676 5.747 1.75-1.364zm10.679 10.669l6.972 5.221c.33-.662.615-1.341.855-2.033l-6.077-4.55-1.75 1.362zm.856-16.943L.88 22.626c.233.698.513 1.386.839 2.059l26.52-20.663a17.006 17.006 0 0 0-1.791-1.316zm4.295 3.918a17.418 17.418 0 0 0-.939-1.106L2.786 26.567a17.144 17.144 0 0 0 1.279 1.717l27.09-21.108c-.134-.186-.269-.37-.412-.552zm1.555 2.375L5.552 29.838c.544.501 1.114.962 1.708 1.382l25.962-20.228a17.158 17.158 0 0 0-.924-1.993z" fill="#63d1bb"/></symbol><symbol id="icon-feature-flower" viewBox="8.014 4.35 31.972 37.301"><path fill="#63d1bb" d="M24 41.65c8.827 0 15.986-7.159 15.986-15.986C31.158 25.664 24 32.822 24 41.65zM12.641 20.78a4.442 4.442 0 0 0 4.44 4.441c.932 0 1.803-.294 2.513-.782l-.036.337c0 2.451 1.99 4.441 4.441 4.441s4.44-1.99 4.44-4.441l-.036-.337a4.396 4.396 0 0 0 2.514.782c2.451 0 4.44-1.99 4.44-4.441a4.418 4.418 0 0 0-2.54-3.997 4.434 4.434 0 0 0 2.54-3.997 4.441 4.441 0 0 0-6.954-3.659l.037-.337a4.441 4.441 0 0 0-8.881 0l.036.337a4.392 4.392 0 0 0-2.513-.781 4.442 4.442 0 0 0-4.44 4.44 4.42 4.42 0 0 0 2.54 3.997 4.42 4.42 0 0 0-2.541 3.997zM24 12.343a4.441 4.441 0 0 1 4.44 4.44 4.441 4.441 0 0 1-8.881 0c0-2.451 1.99-4.44 4.441-4.44zM8.014 25.664c0 8.827 7.158 15.986 15.986 15.986 0-8.828-7.158-15.986-15.986-15.986z"/></symbol><symbol id="icon-feature-gift" viewBox="239.665 239.757 32.666 32.486"><path fill="#63d1bb" d="M242.56 272.243h12.504v-13.91H242.56v13.91zm28.182-23.62h-7.335c.521-.267.984-.549 1.396-.845 1.588-1.133 2.424-2.57 2.42-3.999.002-1.169-.556-2.202-1.359-2.901a4.585 4.585 0 0 0-3.016-1.121c-1.22-.001-2.352.421-3.32 1.069-1.459.979-2.606 2.451-3.424 4.067-.039.079-.078.157-.115.236a12.944 12.944 0 0 0-1.041-1.792c-.691-.985-1.523-1.86-2.497-2.511-.97-.646-2.103-1.069-3.322-1.069-1.213.004-2.323.514-3.155 1.295-.828.783-1.41 1.885-1.412 3.135-.002.73.211 1.494.649 2.188.552.872 1.424 1.628 2.633 2.248h-6.588c-.878 0-1.591.712-1.591 1.59v5.897h15.396v-7.488h1.873v7.488h15.396v-5.897a1.585 1.585 0 0 0-1.588-1.59m-22.362-2.339c-.622-.391-1-.785-1.22-1.135-.22-.354-.294-.662-.296-.963-.004-.504.248-1.042.691-1.461.437-.415 1.028-.667 1.562-.667h.013c.685 0 1.366.231 2.046.683 1.018.671 1.975 1.85 2.645 3.187.342.676.609 1.39.789 2.087-3.082-.321-5.078-1.002-6.23-1.731m10.537-1.627c.557-.797 1.21-1.466 1.887-1.916.68-.451 1.362-.683 2.047-.683h.006c.574 0 1.117.22 1.494.55.377.336.571.739.573 1.171-.004.512-.272 1.259-1.467 2.132-1.138.825-3.101 1.673-6.127 2.265a10.57 10.57 0 0 1 1.587-3.519m-1.98 27.586h12.506v-13.91h-12.506v13.91z"/></symbol><symbol id="icon-feature-heart" viewBox="47.475 50.071 33.05 27.857"><path fill="#63d1bb" d="M80.525 58.808a8.736 8.736 0 0 0-8.736-8.736A8.727 8.727 0 0 0 64 54.865a8.727 8.727 0 0 0-7.789-4.793 8.736 8.736 0 0 0-8.736 8.736c0 9.127 14.657 19.121 16.525 19.121 1.869 0 16.525-9.95 16.525-19.121z"/></symbol><symbol id="icon-feature-money" viewBox="46.212 56.834 46.575 27.332"><path fill="#63d1bb" d="M88.882 56.834H50.116a3.905 3.905 0 0 0-3.904 3.905V80.26a3.905 3.905 0 0 0 3.904 3.905h38.766a3.906 3.906 0 0 0 3.905-3.905V60.739a3.906 3.906 0 0 0-3.905-3.905zm-39.647 24.95V59.551h40.202v22.233H49.235z"/><path fill="#63d1bb" d="M53.14 77.88h32.395V63.456H53.14V77.88zM69.5 65.354a5.315 5.315 0 1 1 0 10.63 5.315 5.315 0 0 1 0-10.63z"/></symbol><symbol id="icon-feature-rocket" viewBox="612.532 500.386 54.156 23.183"><path d="M652.844 506.098c-3.647-.971-7.839-1.667-12.359-1.666a46.394 46.394 0 0 0-7.71.623l-6.784-4.668-13.456.005 5.811 6.184h8.447c-4.58 1.598-6.759 3.515-6.759 3.515l.002 3.777s2.313 1.912 6.931 3.518l-8.623-.005-5.811 6.188 13.455.002 6.816-4.692c2.261.398 4.822.647 7.681.648 4.522-.001 8.712-.697 12.36-1.667-1.176-1.775-1.915-3.743-1.918-5.877.003-2.141.738-4.112 1.917-5.885zm3.423 1.034c-1.284 1.605-1.969 3.25-1.965 4.84-.007 1.597.677 3.238 1.968 4.847 6.399-2.162 10.419-4.841 10.419-4.841s-4.019-2.68-10.422-4.846z" fill="#63d1bb"/></symbol><symbol id="icon-flag" viewBox="-11.34 -28.346 46.68 81.691"><path fill="#63D1BB" d="M-3.561-24.455v38.9l38.9-19.451-38.9-19.449zm-7.779 77.801v-81.691h3.805v81.691h-3.805z"/><path fill="#231F20" d="M-11.34-28.346h3.805v81.691h-3.805z"/></symbol><symbol id="icon-left-arrow"><path d="M50 11.002H7.659l8.174-8.174L13.005 0 0 12.998l.003.003-.003.004 13.005 12.998 2.828-2.828-8.172-8.173H50z"/></symbol><symbol id="icon-map-pin"><path fill="#FFF" d="M56.334 9.228c-12.892-12.305-33.773-12.305-46.667 0-12.891 12.297-12.891 32.248 0 44.542 0 0 23.318 21.832 23.318 47.031 0-25.199 23.343-47.031 23.343-47.031 12.897-12.294 12.897-32.245.006-44.542z"/><path fill="#6BC6B3" d="M47.036 45.522c-.636-3.277.13-6.947.027-10.284-.115-3.755-.713-7.485-.665-11.246.039-3.044.545-6.173-.503-9.091.065-.332.134-.662.195-.995.271-1.463-4.577-.689-5.338.649-.479.393-.726.861-.523 1.339.051.121.097.243.142.365-.917 4.485-2.197 8.827-3.668 13.174-.563 1.663-1.244 3.288-1.817 4.946-.814-1.545-1.638-3.071-2.3-4.728-1.922-4.805-3.656-9.661-6-14.285.266-2.14-4.484-1.916-5.421.044-1.132 2.371-.986 4.763-.613 7.299.42 2.858.494 5.668.528 8.554.066 5.566.502 11.119.584 16.684-.496.552-.646 1.233-.127 1.924.226.302.505.535.799.769 1.265 1.013 4.899.15 4.893-1.779-.02-5.771-.437-11.531-.589-17.299-.015-.565-.025-1.129-.034-1.694.08.203.159.406.24.607.896 2.245 1.833 4.427 3.059 6.514 1.214 2.068 1.824 4.289 2.523 6.547-.265.303-.423.647-.326.991-.055.251.099.409.352.504.894.766 2.578.383 3.513-.01a8.28 8.28 0 0 0 1.155-.593c.483-.297 1.236-.95 1.021-1.622a44.64 44.64 0 0 1-.121-.391c.657-1.776.992-3.625 1.352-5.5.381-2 1.095-3.892 1.812-5.786.073.867.149 1.732.219 2.597.285 3.575.046 7.099.011 10.674a16.22 16.22 0 0 0 .306 3.445c.096.479.514 2.53.394 2.642-.855.79-.606 1.759.539 2.011 1.279.281 2.912-.148 3.877-1.039 1.675-1.548.882-3.98.504-5.937z"/></symbol><symbol id="icon-menu-close"><path fill="#231F20" d="M20.513 1.414L19.099 0l-8.843 8.842L1.414 0 0 1.414l8.842 8.842L0 19.098l1.414 1.414 8.842-8.842 8.843 8.842 1.414-1.414-8.842-8.842z"/></symbol><symbol id="icon-menu-open"><path fill="#231F20" d="M0 0h19.958v2H0zm0 6h19.958v2H0zm0 6h19.958v2H0z"/></symbol><symbol id="icon-play" viewBox="247.3 382.56 100.678 76.891"><path fill="#63D1BB" d="M344.255 400.708s-.92-7.008-3.785-10.078c-3.632-4.041-7.674-4.066-9.541-4.297-13.326-1.023-33.303-1.023-33.303-1.023h-.051s-19.978 0-33.304 1.023c-1.867.23-5.908.256-9.54 4.297-2.84 3.096-3.786 10.078-3.786 10.078s-.896 8.211-.896 16.422v7.699c0 8.21.947 16.421.947 16.421s.921 7.009 3.785 10.078c3.632 4.041 8.364 3.913 10.487 4.349 7.622.767 32.356 1.022 32.356 1.022s20.003-.025 33.329-1.048c1.867-.23 5.908-.256 9.54-4.298 2.84-3.069 3.786-10.078 3.786-10.078s.946-8.21.946-16.421v-7.699c-.023-8.236-.97-16.447-.97-16.447z"/><path fill="#FFF" d="M297.614 459.449h-.016c-1.015-.011-24.946-.266-32.604-1.037l-.14-.014-.137-.028c-.271-.056-.668-.107-1.126-.167-2.503-.328-7.159-.938-10.839-5.019-3.354-3.616-4.377-10.771-4.483-11.576l-.005-.043c-.039-.342-.965-8.463-.965-16.736v-7.699c0-8.266.875-16.378.912-16.72l.009-.071c.108-.802 1.155-7.928 4.474-11.557 3.996-4.439 8.531-4.899 10.712-5.121.192-.02.37-.037.529-.058l.126-.013c13.277-1.019 33.312-1.031 33.514-1.031h.051c.201 0 20.236.013 33.514 1.031l.126.013c.159.021.337.038.529.058 2.179.221 6.71.682 10.704 5.112 3.354 3.616 4.377 10.771 4.483 11.577l.005.043c.039.342.965 8.459.99 16.753v7.708c0 8.273-.926 16.395-.965 16.736l-.007.053c-.108.805-1.156 7.953-4.478 11.562-3.994 4.435-8.527 4.896-10.707 5.117-.193.02-.371.037-.53.057l-.126.013c-13.276 1.02-33.334 1.057-33.535 1.058l-.015-.001zm-31.944-6.497c7.477.729 31.216.989 31.968.997.657-.001 20.135-.049 33.047-1.036.178-.021.371-.041.58-.062 1.836-.186 4.608-.468 7.186-3.335l.026-.029c1.825-1.974 2.853-6.928 3.075-8.552.059-.514.926-8.358.926-16.08v-7.699c-.023-7.76-.896-15.627-.951-16.109-.32-2.382-1.434-6.789-3.066-8.539l-.035-.038c-2.577-2.868-5.351-3.149-7.186-3.336a34.367 34.367 0 0 1-.58-.062c-13.066-.998-32.834-1.011-33.033-1.011h-.051c-.198 0-19.967.013-33.033 1.011a33.29 33.29 0 0 1-.58.062c-1.835.187-4.607.468-7.186 3.336l-.019.021c-1.828 1.993-2.855 6.924-3.082 8.552-.062.591-.875 8.399-.875 16.089v7.699c0 7.749.871 15.598.926 16.083.32 2.381 1.433 6.789 3.066 8.539l.035.039c2.322 2.584 5.303 2.975 7.479 3.259.481.061.939.121 1.363.201z"/><path fill="#FFF" d="M285.733 403.138v35.708l29.747-17.854z"/></symbol><symbol id="icon-right-arrow"><path d="M0 11.002h42.341l-8.175-8.174L36.995 0 50 12.998l-.004.003.004.004-13.005 12.998-2.829-2.828 8.173-8.173H0z"/></symbol><symbol id="icon-tick"><path d="M32.666 1.414L31.252 0 11.338 19.914 1.414 9.989 0 11.403l9.924 9.925 1.414 1.414h.001l1.414-1.414h-.001z"/></symbol><symbol id="icon-video"><path d="M26 15l6-4v16l-6-4v-8zm-2 0v8a4 4 0 0 1-4 4H4a4 4 0 0 1-4-4v-8a4 4 0 0 1 4-4h10a2 2 0 0 1 2-2V7H5a1 1 0 1 1 0-2h12a1 1 0 0 1 1 1v3a2 2 0 0 1 2 2 4 4 0 0 1 4 4zm-12 0H4v8h8v-8zm8 1a1 1 0 0 0-1-1h-4a1 1 0 1 0 0 2h4a1 1 0 0 0 1-1z" fill="#63d1bb"/></symbol></svg>